<svg width="1920" height="1080" viewBox="0 0 1920 1080" fill="none" xmlns="http://www.w3.org/2000/svg">
  <defs>
    <linearGradient id="bg2" x1="0" y1="0" x2="1920" y2="1080" gradientUnits="userSpaceOnUse">
      <stop stop-color="#060606"/>
      <stop offset="1" stop-color="#171717"/>
    </linearGradient>
    <linearGradient id="panel" x1="0" y1="0" x2="0" y2="1">
      <stop offset="0" stop-color="#1C1C1C"/>
      <stop offset="1" stop-color="#090909"/>
    </linearGradient>
    <linearGradient id="line" x1="0" y1="0" x2="1" y2="0">
      <stop offset="0" stop-color="#FFFFFF" stop-opacity="0.15"/>
      <stop offset="0.5" stop-color="#FFFFFF" stop-opacity="0.58"/>
      <stop offset="1" stop-color="#FFFFFF" stop-opacity="0.15"/>
    </linearGradient>
    <radialGradient id="halo" cx="0" cy="0" r="1" gradientUnits="userSpaceOnUse" gradientTransform="translate(960 520) rotate(90) scale(420 760)">
      <stop stop-color="#FFFFFF" stop-opacity="0.18"/>
      <stop offset="1" stop-color="#0C0C0C" stop-opacity="0"/>
    </radialGradient>
  </defs>

  <rect width="1920" height="1080" fill="url(#bg2)"/>
  <rect width="1920" height="1080" fill="url(#halo)"/>

  <g opacity="0.22">
    <line x1="120" y1="140" x2="1800" y2="140" stroke="#FFFFFF" stroke-opacity="0.2"/>
    <line x1="120" y1="940" x2="1800" y2="940" stroke="#FFFFFF" stroke-opacity="0.2"/>
    <line x1="120" y1="540" x2="1800" y2="540" stroke="#FFFFFF" stroke-opacity="0.08"/>
  </g>

  <rect x="310" y="304" width="1300" height="520" fill="url(#panel)" stroke="#FFFFFF" stroke-opacity="0.22"/>

  <rect x="402" y="392" width="480" height="338" fill="#0B0B0B" stroke="#FFFFFF" stroke-opacity="0.32"/>
  <rect x="931" y="356" width="238" height="420" rx="12" fill="#0B0B0B" stroke="#FFFFFF" stroke-opacity="0.36"/>
  <rect x="1220" y="410" width="290" height="290" rx="18" fill="#0B0B0B" stroke="#FFFFFF" stroke-opacity="0.34"/>

  <line x1="882" y1="561" x2="932" y2="561" stroke="url(#line)" stroke-width="2"/>
  <line x1="1169" y1="561" x2="1220" y2="561" stroke="url(#line)" stroke-width="2"/>
  <line x1="776" y1="731" x2="1020" y2="731" stroke="url(#line)" stroke-width="1.5" stroke-opacity="0.4"/>

  <rect x="454" y="444" width="376" height="12" rx="6" fill="#FFFFFF" fill-opacity="0.44"/>
  <rect x="454" y="484" width="290" height="10" rx="5" fill="#FFFFFF" fill-opacity="0.2"/>
  <rect x="454" y="516" width="332" height="10" rx="5" fill="#FFFFFF" fill-opacity="0.2"/>

  <rect x="979" y="418" width="142" height="16" rx="8" fill="#FFFFFF" fill-opacity="0.38"/>
  <rect x="979" y="452" width="110" height="10" rx="5" fill="#FFFFFF" fill-opacity="0.22"/>
  <rect x="979" y="476" width="120" height="10" rx="5" fill="#FFFFFF" fill-opacity="0.22"/>

  <rect x="1264" y="456" width="202" height="12" rx="6" fill="#FFFFFF" fill-opacity="0.36"/>
  <rect x="1264" y="488" width="164" height="10" rx="5" fill="#FFFFFF" fill-opacity="0.2"/>
  <rect x="1264" y="514" width="176" height="10" rx="5" fill="#FFFFFF" fill-opacity="0.2"/>

  <text x="402" y="264" fill="#FFFFFF" fill-opacity="0.82" font-size="34" font-family="Arial, Helvetica, sans-serif" letter-spacing="1.8">MULTI-PLATFORM</text>
  <text x="402" y="302" fill="#D6D6D6" fill-opacity="0.72" font-size="22" font-family="Arial, Helvetica, sans-serif">Unified interface across iOS, Android, and Web</text>

  <text x="402" y="780" fill="#E2E2E2" fill-opacity="0.62" font-size="20" font-family="Arial, Helvetica, sans-serif">Desktop</text>
  <text x="981" y="826" fill="#E2E2E2" fill-opacity="0.62" font-size="20" font-family="Arial, Helvetica, sans-serif">Mobile</text>
  <text x="1264" y="748" fill="#E2E2E2" fill-opacity="0.62" font-size="20" font-family="Arial, Helvetica, sans-serif">Tablet</text>
</svg>
