<svg width="1920" height="1080" viewBox="0 0 1920 1080" fill="none" xmlns="http://www.w3.org/2000/svg">
  <defs>
    <linearGradient id="bg2" x1="0" y1="0" x2="1920" y2="1080" gradientUnits="userSpaceOnUse">
      <stop stop-color="#050505"/>
      <stop offset="1" stop-color="#141414"/>
    </linearGradient>
    <radialGradient id="mist" cx="0" cy="0" r="1" gradientUnits="userSpaceOnUse" gradientTransform="translate(560 700) rotate(-28) scale(640 360)">
      <stop stop-color="#FFFFFF" stop-opacity="0.2"/>
      <stop offset="1" stop-color="#0A0A0A" stop-opacity="0"/>
    </radialGradient>
    <filter id="blur" x="0" y="0" width="1920" height="1080" filterUnits="userSpaceOnUse" color-interpolation-filters="sRGB">
      <feGaussianBlur stdDeviation="16"/>
    </filter>
  </defs>

  <rect width="1920" height="1080" fill="url(#bg2)"/>
  <rect width="1920" height="1080" fill="url(#mist)"/>

  <g opacity="0.25">
    <line x1="140" y1="152" x2="1780" y2="152" stroke="#FFFFFF" stroke-opacity="0.2"/>
    <line x1="140" y1="928" x2="1780" y2="928" stroke="#FFFFFF" stroke-opacity="0.2"/>
    <line x1="140" y1="540" x2="1780" y2="540" stroke="#FFFFFF" stroke-opacity="0.1"/>
  </g>

  <rect x="230" y="214" width="1460" height="652" fill="#080808" stroke="#FFFFFF" stroke-opacity="0.22"/>

  <rect x="338" y="322" width="516" height="436" fill="#0B0B0B" stroke="#FFFFFF" stroke-opacity="0.3"/>
  <rect x="916" y="322" width="666" height="196" fill="#0B0B0B" stroke="#FFFFFF" stroke-opacity="0.28"/>
  <rect x="916" y="562" width="666" height="196" fill="#0B0B0B" stroke="#FFFFFF" stroke-opacity="0.2"/>

  <path d="M420 642C496 550 604 512 694 528C780 544 842 598 910 590" stroke="#FFFFFF" stroke-opacity="0.42" stroke-width="3"/>
  <path d="M420 684C496 592 604 554 694 570C780 586 842 640 910 632" stroke="#FFFFFF" stroke-opacity="0.2" stroke-width="3"/>

  <rect x="976" y="376" width="530" height="14" rx="7" fill="#FFFFFF" fill-opacity="0.4"/>
  <rect x="976" y="414" width="402" height="10" rx="5" fill="#FFFFFF" fill-opacity="0.2"/>
  <rect x="976" y="438" width="440" height="10" rx="5" fill="#FFFFFF" fill-opacity="0.2"/>

  <rect x="976" y="616" width="530" height="14" rx="7" fill="#FFFFFF" fill-opacity="0.34"/>
  <rect x="976" y="654" width="454" height="10" rx="5" fill="#FFFFFF" fill-opacity="0.2"/>
  <rect x="976" y="678" width="430" height="10" rx="5" fill="#FFFFFF" fill-opacity="0.2"/>

  <g filter="url(#blur)">
    <ellipse cx="558" cy="818" rx="220" ry="44" fill="#FFFFFF" fill-opacity="0.2"/>
  </g>

  <text x="338" y="182" fill="#FFFFFF" fill-opacity="0.78" font-size="34" font-family="Arial, Helvetica, sans-serif" letter-spacing="1.6">IMMERSIVE CONTROL</text>
  <text x="338" y="218" fill="#D7D7D7" fill-opacity="0.64" font-size="22" font-family="Arial, Helvetica, sans-serif">디바이스에 상관없이 동일한 집중 경험 제공</text>
</svg>
