<svg width="1920" height="1080" viewBox="0 0 1920 1080" fill="none" xmlns="http://www.w3.org/2000/svg">
  <defs>
    <linearGradient id="bg" x1="0" y1="0" x2="1920" y2="1080" gradientUnits="userSpaceOnUse">
      <stop stop-color="#060606"/>
      <stop offset="1" stop-color="#181818"/>
    </linearGradient>
    <radialGradient id="core" cx="0" cy="0" r="1" gradientUnits="userSpaceOnUse" gradientTransform="translate(1300 260) rotate(140) scale(440 700)">
      <stop stop-color="#FFFFFF" stop-opacity="0.2"/>
      <stop offset="1" stop-color="#0A0A0A" stop-opacity="0"/>
    </radialGradient>
  </defs>
  <rect width="1920" height="1080" fill="url(#bg)"/>
  <rect width="1920" height="1080" fill="url(#core)"/>
  <g opacity="0.3">
    <line x1="144" y1="152" x2="1776" y2="152" stroke="#FFFFFF" stroke-opacity="0.2"/>
    <line x1="144" y1="928" x2="1776" y2="928" stroke="#FFFFFF" stroke-opacity="0.2"/>
    <line x1="144" y1="540" x2="1776" y2="540" stroke="#FFFFFF" stroke-opacity="0.1"/>
  </g>
  <rect x="268" y="228" width="1384" height="624" fill="#080808" stroke="#FFFFFF" stroke-opacity="0.2"/>
  <rect x="372" y="336" width="438" height="408" fill="#0B0B0B" stroke="#FFFFFF" stroke-opacity="0.3"/>
  <rect x="860" y="336" width="688" height="178" fill="#0B0B0B" stroke="#FFFFFF" stroke-opacity="0.24"/>
  <rect x="860" y="566" width="688" height="178" fill="#0B0B0B" stroke="#FFFFFF" stroke-opacity="0.2"/>
  <rect x="426" y="396" width="330" height="14" rx="7" fill="#FFFFFF" fill-opacity="0.44"/>
  <rect x="426" y="436" width="252" height="10" rx="5" fill="#FFFFFF" fill-opacity="0.22"/>
  <rect x="426" y="462" width="286" height="10" rx="5" fill="#FFFFFF" fill-opacity="0.22"/>
  <rect x="916" y="390" width="520" height="12" rx="6" fill="#FFFFFF" fill-opacity="0.34"/>
  <rect x="916" y="422" width="406" height="10" rx="5" fill="#FFFFFF" fill-opacity="0.2"/>
  <rect x="916" y="446" width="442" height="10" rx="5" fill="#FFFFFF" fill-opacity="0.2"/>
  <rect x="916" y="620" width="520" height="12" rx="6" fill="#FFFFFF" fill-opacity="0.3"/>
  <rect x="916" y="652" width="386" height="10" rx="5" fill="#FFFFFF" fill-opacity="0.2"/>
  <text x="372" y="190" fill="#FFFFFF" fill-opacity="0.78" font-size="34" font-family="Arial, Helvetica, sans-serif" letter-spacing="1.6">AMBIENT GRID</text>
  <text x="372" y="226" fill="#D6D6D6" fill-opacity="0.64" font-size="22" font-family="Arial, Helvetica, sans-serif">환경 반응을 단순한 격자로 시각화한 대시 레이아웃</text>
</svg>
