<svg width="1920" height="1080" viewBox="0 0 1920 1080" fill="none" xmlns="http://www.w3.org/2000/svg">
  <defs>
    <linearGradient id="bg" x1="0" y1="0" x2="1920" y2="1080" gradientUnits="userSpaceOnUse">
      <stop stop-color="#060606"/>
      <stop offset="1" stop-color="#171717"/>
    </linearGradient>
    <linearGradient id="line" x1="0" y1="0" x2="1" y2="0">
      <stop offset="0" stop-color="#FFFFFF" stop-opacity="0.06"/>
      <stop offset="0.5" stop-color="#FFFFFF" stop-opacity="0.35"/>
      <stop offset="1" stop-color="#FFFFFF" stop-opacity="0.06"/>
    </linearGradient>
    <radialGradient id="glow" cx="0" cy="0" r="1" gradientUnits="userSpaceOnUse" gradientTransform="translate(1460 300) rotate(130) scale(420 680)">
      <stop stop-color="#FFFFFF" stop-opacity="0.24"/>
      <stop offset="1" stop-color="#0B0B0B" stop-opacity="0"/>
    </radialGradient>
  </defs>

  <rect width="1920" height="1080" fill="url(#bg)"/>
  <rect width="1920" height="1080" fill="url(#glow)"/>

  <g opacity="0.3">
    <line x1="120" y1="128" x2="1800" y2="128" stroke="#FFFFFF" stroke-opacity="0.2"/>
    <line x1="120" y1="952" x2="1800" y2="952" stroke="#FFFFFF" stroke-opacity="0.2"/>
    <line x1="120" y1="540" x2="1800" y2="540" stroke="#FFFFFF" stroke-opacity="0.08"/>
  </g>

  <rect x="264" y="230" width="1392" height="620" fill="#080808" stroke="#FFFFFF" stroke-opacity="0.2"/>
  <rect x="364" y="330" width="520" height="420" fill="#0D0D0D" stroke="#FFFFFF" stroke-opacity="0.28"/>
  <rect x="938" y="330" width="618" height="420" fill="#0D0D0D" stroke="#FFFFFF" stroke-opacity="0.22"/>

  <line x1="938" y1="458" x2="1556" y2="458" stroke="url(#line)" stroke-width="1.5"/>
  <line x1="938" y1="548" x2="1556" y2="548" stroke="url(#line)" stroke-width="1.5"/>
  <line x1="938" y1="638" x2="1556" y2="638" stroke="url(#line)" stroke-width="1.5"/>

  <rect x="420" y="386" width="408" height="18" rx="9" fill="#FFFFFF" fill-opacity="0.45"/>
  <rect x="420" y="436" width="324" height="12" rx="6" fill="#FFFFFF" fill-opacity="0.2"/>
  <rect x="420" y="470" width="356" height="12" rx="6" fill="#FFFFFF" fill-opacity="0.2"/>
  <rect x="420" y="504" width="300" height="12" rx="6" fill="#FFFFFF" fill-opacity="0.2"/>

  <text x="364" y="188" fill="#FFFFFF" fill-opacity="0.78" font-size="34" font-family="Arial, Helvetica, sans-serif" letter-spacing="1.6">FOCUS ARCHIVE</text>
  <text x="364" y="224" fill="#D7D7D7" fill-opacity="0.64" font-size="22" font-family="Arial, Helvetica, sans-serif">하루의 몰입 기록을 정제된 레이어로 확인</text>

  <circle cx="1558" cy="164" r="4" fill="#FFFFFF" fill-opacity="0.5"/>
  <circle cx="1572" cy="164" r="4" fill="#FFFFFF" fill-opacity="0.32"/>
  <circle cx="1586" cy="164" r="4" fill="#FFFFFF" fill-opacity="0.18"/>
</svg>
