<svg width="1920" height="1080" viewBox="0 0 1920 1080" fill="none" xmlns="http://www.w3.org/2000/svg">
  <defs>
    <linearGradient id="bg" x1="0" y1="0" x2="1920" y2="1080" gradientUnits="userSpaceOnUse">
      <stop stop-color="#050505"/>
      <stop offset="1" stop-color="#151515"/>
    </linearGradient>
    <radialGradient id="halo" cx="0" cy="0" r="1" gradientUnits="userSpaceOnUse" gradientTransform="translate(980 580) rotate(90) scale(420 760)">
      <stop stop-color="#FFFFFF" stop-opacity="0.2"/>
      <stop offset="1" stop-color="#0A0A0A" stop-opacity="0"/>
    </radialGradient>
  </defs>
  <rect width="1920" height="1080" fill="url(#bg)"/>
  <rect width="1920" height="1080" fill="url(#halo)"/>
  <g opacity="0.26">
    <line x1="124" y1="156" x2="1796" y2="156" stroke="#FFFFFF" stroke-opacity="0.2"/>
    <line x1="124" y1="924" x2="1796" y2="924" stroke="#FFFFFF" stroke-opacity="0.2"/>
    <line x1="124" y1="540" x2="1796" y2="540" stroke="#FFFFFF" stroke-opacity="0.08"/>
  </g>
  <rect x="252" y="220" width="1416" height="640" fill="#080808" stroke="#FFFFFF" stroke-opacity="0.2"/>
  <rect x="360" y="328" width="1198" height="424" fill="#0B0B0B" stroke="#FFFFFF" stroke-opacity="0.26"/>
  <rect x="430" y="398" width="440" height="18" rx="9" fill="#FFFFFF" fill-opacity="0.42"/>
  <rect x="430" y="446" width="352" height="10" rx="5" fill="#FFFFFF" fill-opacity="0.22"/>
  <rect x="430" y="472" width="384" height="10" rx="5" fill="#FFFFFF" fill-opacity="0.22"/>
  <rect x="430" y="498" width="330" height="10" rx="5" fill="#FFFFFF" fill-opacity="0.22"/>
  <rect x="938" y="392" width="550" height="14" rx="7" fill="#FFFFFF" fill-opacity="0.34"/>
  <rect x="938" y="430" width="430" height="10" rx="5" fill="#FFFFFF" fill-opacity="0.2"/>
  <rect x="938" y="454" width="458" height="10" rx="5" fill="#FFFFFF" fill-opacity="0.2"/>
  <path d="M938 674H1488" stroke="#FFFFFF" stroke-opacity="0.2"/>
  <path d="M938 704H1412" stroke="#FFFFFF" stroke-opacity="0.2"/>
  <path d="M938 734H1450" stroke="#FFFFFF" stroke-opacity="0.2"/>
  <text x="360" y="186" fill="#FFFFFF" fill-opacity="0.78" font-size="34" font-family="Arial, Helvetica, sans-serif" letter-spacing="1.6">UNIFIED SPACE</text>
  <text x="360" y="222" fill="#D6D6D6" fill-opacity="0.64" font-size="22" font-family="Arial, Helvetica, sans-serif">플랫폼별 경험을 하나의 언어로 연결하는 인터페이스</text>
</svg>
