<svg xmlns="http://www.w3.org/2000/svg" width="1600" height="1000" viewBox="0 0 1600 1000" fill="none">
  <defs>
    <linearGradient id="bg" x1="0" y1="0" x2="1600" y2="1000" gradientUnits="userSpaceOnUse">
      <stop offset="0" stop-color="#070707"/>
      <stop offset="1" stop-color="#141414"/>
    </linearGradient>
    <radialGradient id="halo" cx="0" cy="0" r="1" gradientUnits="userSpaceOnUse" gradientTransform="translate(802 546) rotate(90) scale(262)">
      <stop offset="0" stop-color="#F5F5F5" stop-opacity="0.22"/>
      <stop offset="1" stop-color="#F5F5F5" stop-opacity="0"/>
    </radialGradient>
    <pattern id="grid" width="52" height="52" patternUnits="userSpaceOnUse">
      <path d="M52 0H0V52" stroke="white" stroke-opacity="0.05" stroke-width="1"/>
    </pattern>
  </defs>

  <rect width="1600" height="1000" fill="url(#bg)"/>
  <rect width="1600" height="1000" fill="url(#grid)"/>

  <rect x="260" y="242" width="1080" height="560" rx="26" fill="#101010" stroke="white" stroke-opacity="0.18"/>
  <ellipse cx="802" cy="546" rx="330" ry="232" fill="url(#halo)"/>

  <rect x="728" y="360" width="148" height="300" rx="74" fill="#EDEDED" fill-opacity="0.16" stroke="white" stroke-opacity="0.36"/>
  <ellipse cx="802" cy="360" rx="74" ry="24" fill="#F3F3F3" fill-opacity="0.68"/>
  <ellipse cx="802" cy="660" rx="74" ry="24" fill="#9A9A9A" fill-opacity="0.42"/>

  <ellipse cx="802" cy="546" rx="236" ry="98" stroke="white" stroke-opacity="0.32" stroke-width="2"/>
  <ellipse cx="802" cy="546" rx="204" ry="80" stroke="white" stroke-opacity="0.22" stroke-width="1.5"/>

  <rect x="350" y="308" width="184" height="112" rx="12" fill="#171717" stroke="white" stroke-opacity="0.13"/>
  <rect x="1070" y="316" width="184" height="120" rx="12" fill="#171717" stroke="white" stroke-opacity="0.13"/>
  <rect x="1110" y="590" width="148" height="102" rx="12" fill="#171717" stroke="white" stroke-opacity="0.11"/>

  <path d="M802 294V148" stroke="white" stroke-opacity="0.44" stroke-width="2"/>
  <circle cx="802" cy="136" r="10" fill="#F1F1F1" fill-opacity="0.88"/>
  <path d="M692 326L598 234" stroke="white" stroke-opacity="0.25" stroke-width="2"/>
  <path d="M912 326L1006 234" stroke="white" stroke-opacity="0.25" stroke-width="2"/>

  <rect x="0" y="0" width="1600" height="1000" fill="black" fill-opacity="0.12"/>
</svg>
