<svg xmlns="http://www.w3.org/2000/svg" width="1600" height="1000" viewBox="0 0 1600 1000" fill="none">
  <defs>
    <linearGradient id="bg" x1="0" y1="0" x2="1600" y2="1000" gradientUnits="userSpaceOnUse">
      <stop offset="0" stop-color="#090909"/>
      <stop offset="1" stop-color="#161616"/>
    </linearGradient>
  </defs>

  <rect width="1600" height="1000" fill="url(#bg)"/>
  <rect x="120" y="120" width="1360" height="760" rx="24" fill="#111111" stroke="white" stroke-opacity="0.16"/>

  <rect x="170" y="180" width="470" height="280" rx="16" fill="#171717" stroke="white" stroke-opacity="0.12"/>
  <rect x="690" y="180" width="360" height="130" rx="16" fill="#171717" stroke="white" stroke-opacity="0.12"/>
  <rect x="1090" y="180" width="340" height="130" rx="16" fill="#171717" stroke="white" stroke-opacity="0.12"/>
  <rect x="690" y="338" width="740" height="490" rx="16" fill="#131313" stroke="white" stroke-opacity="0.12"/>
  <rect x="170" y="500" width="470" height="328" rx="16" fill="#131313" stroke="white" stroke-opacity="0.12"/>

  <g opacity="0.44" stroke="white" stroke-opacity="0.2" stroke-width="1">
    <path d="M205 422H605"/>
    <path d="M205 382H605"/>
    <path d="M205 342H605"/>
    <path d="M205 302H605"/>
    <path d="M205 262H605"/>
  </g>

  <path d="M220 410L300 364L380 386L470 290L540 332L620 246" stroke="#F0F0F0" stroke-opacity="0.78" stroke-width="4" stroke-linecap="round" stroke-linejoin="round"/>
  <circle cx="300" cy="364" r="6" fill="#F4F4F4"/>
  <circle cx="470" cy="290" r="6" fill="#F4F4F4"/>
  <circle cx="620" cy="246" r="6" fill="#F4F4F4"/>

  <rect x="220" y="760" width="54" height="48" rx="8" fill="#4D4D4D"/>
  <rect x="290" y="726" width="54" height="82" rx="8" fill="#5F5F5F"/>
  <rect x="360" y="694" width="54" height="114" rx="8" fill="#767676"/>
  <rect x="430" y="740" width="54" height="68" rx="8" fill="#898989"/>
  <rect x="500" y="662" width="54" height="146" rx="8" fill="#B8B8B8"/>

  <g opacity="0.3" stroke="white" stroke-opacity="0.28" stroke-width="1">
    <path d="M726 470H1390"/>
    <path d="M726 538H1390"/>
    <path d="M726 606H1390"/>
    <path d="M726 674H1390"/>
    <path d="M726 742H1390"/>
  </g>

  <path d="M748 722C840 630 926 662 1014 574C1084 504 1138 526 1210 466C1260 426 1314 430 1370 404" stroke="#DFDFDF" stroke-opacity="0.75" stroke-width="3" stroke-linecap="round"/>

  <rect x="0" y="0" width="1600" height="1000" fill="black" fill-opacity="0.08"/>
</svg>
