<svg xmlns="http://www.w3.org/2000/svg" width="1600" height="1000" viewBox="0 0 1600 1000" fill="none">
  <defs>
    <linearGradient id="bg" x1="0" y1="0" x2="1600" y2="1000" gradientUnits="userSpaceOnUse">
      <stop offset="0" stop-color="#0A0A0A"/>
      <stop offset="1" stop-color="#171717"/>
    </linearGradient>
    <radialGradient id="sensor" cx="0" cy="0" r="1" gradientUnits="userSpaceOnUse" gradientTransform="translate(700 500) rotate(90) scale(320)">
      <stop offset="0" stop-color="#ECECEC" stop-opacity="0.28"/>
      <stop offset="1" stop-color="#ECECEC" stop-opacity="0"/>
    </radialGradient>
  </defs>

  <rect width="1600" height="1000" fill="url(#bg)"/>
  <rect x="120" y="120" width="1360" height="760" rx="24" fill="#111111" stroke="white" stroke-opacity="0.16"/>

  <ellipse cx="700" cy="520" rx="320" ry="240" fill="url(#sensor)"/>

  <g opacity="0.72" stroke="#E4E4E4" stroke-width="2">
    <circle cx="700" cy="520" r="78"/>
    <circle cx="700" cy="520" r="138" stroke-opacity="0.55"/>
    <circle cx="700" cy="520" r="196" stroke-opacity="0.36"/>
  </g>

  <path d="M700 300V740" stroke="#E7E7E7" stroke-opacity="0.48" stroke-width="1.5"/>
  <path d="M480 520H920" stroke="#E7E7E7" stroke-opacity="0.48" stroke-width="1.5"/>

  <rect x="990" y="266" width="350" height="152" rx="14" fill="#171717" stroke="white" stroke-opacity="0.14"/>
  <rect x="990" y="438" width="350" height="152" rx="14" fill="#171717" stroke="white" stroke-opacity="0.14"/>
  <rect x="990" y="610" width="350" height="152" rx="14" fill="#171717" stroke="white" stroke-opacity="0.14"/>

  <path d="M1026 330C1060 304 1098 358 1138 332C1170 312 1212 348 1242 330C1278 308 1304 344 1340 324" stroke="#D9D9D9" stroke-width="2.5" stroke-linecap="round"/>
  <path d="M1026 504C1058 488 1092 538 1132 512C1166 488 1202 534 1240 512C1270 494 1310 528 1340 510" stroke="#D9D9D9" stroke-width="2.5" stroke-linecap="round"/>
  <path d="M1026 678C1068 650 1100 708 1138 676C1170 652 1212 700 1242 674C1274 648 1308 692 1340 666" stroke="#D9D9D9" stroke-width="2.5" stroke-linecap="round"/>

  <rect x="0" y="0" width="1600" height="1000" fill="black" fill-opacity="0.09"/>
</svg>
