<svg width="1200" height="700" viewBox="0 0 1200 700" xmlns="http://www.w3.org/2000/svg">
  <defs>
    <radialGradient id="bg" cx="50%" cy="50%" r="70%">
      <stop offset="0%" stop-color="#090909"/>
      <stop offset="60%" stop-color="#050505"/>
      <stop offset="100%" stop-color="#000000"/>
    </radialGradient>
    <radialGradient id="planetMain" cx="32%" cy="30%" r="65%">
      <stop offset="0%" stop-color="#d6d0d7"/>
      <stop offset="60%" stop-color="#8e8393"/>
      <stop offset="100%" stop-color="#352f39"/>
    </radialGradient>
    <linearGradient id="ring" x1="0" y1="0" x2="1" y2="0">
      <stop offset="0%" stop-color="#ffffff11"/>
      <stop offset="45%" stop-color="#ffffff44"/>
      <stop offset="100%" stop-color="#ffffff11"/>
    </linearGradient>
    <filter id="blurGlow" x="-50%" y="-50%" width="200%" height="200%">
      <feGaussianBlur stdDeviation="22"/>
    </filter>
  </defs>

  <rect width="1200" height="700" fill="url(#bg)"/>
  <circle cx="840" cy="350" r="180" fill="#8e8393" opacity="0.38" filter="url(#blurGlow)"/>
  <circle cx="840" cy="350" r="150" fill="url(#planetMain)"/>
  <circle cx="790" cy="300" r="28" fill="#ffffff1f"/>
  <path d="M700 350 C760 300 920 300 980 350 C920 400 760 400 700 350Z" fill="url(#ring)" opacity="0.65"/>
  <path d="M708 378 C774 338 906 338 972 378" stroke="#ffffff18" stroke-width="2" fill="none"/>

  <g opacity="0.35" stroke="#ffffff1f" stroke-width="1">
    <line x1="80" y1="120" x2="420" y2="120"/>
    <line x1="80" y1="150" x2="500" y2="150"/>
    <line x1="80" y1="180" x2="360" y2="180"/>
  </g>
</svg>
